<?xml version="1.0" encoding="utf-8"?>
<!-- Generator: Adobe Illustrator 26.0.1, SVG Export Plug-In . SVG Version: 6.00 Build 0)  -->
<svg version="1.1" id="Layer_1" xmlns="http://www.w3.org/2000/svg" xmlns:xlink="http://www.w3.org/1999/xlink" x="0px" y="0px"
	 viewBox="0 0 197.3 233.2" style="enable-background:new 0 0 197.3 233.2;" xml:space="preserve">
<style type="text/css">
	.st0{fill:#030302;}
	.st1{fill:#FCCF13;}
	.st2{fill:#050504;}
	.st3{fill:#FEEEA9;}
	.st4{fill:#040403;}
	.st5{fill:#050503;}
</style>
<g id="ou4agq.tif">
	<g>
		<path class="st0" d="M66.6,232.9c-1.1-0.1-2.2-0.4-3.2-0.7c-3-1.1-3.9-3.9-3.7-6.5c0.2-2.2,1.2-4.1,2.6-5.8
			c2.8-3.7,6.3-6.6,10.4-8.8c2.2-1.2,4.6-2.1,7-3c0.8-0.3,1.5-0.6,2.2-0.9c1.6-0.6,2.2-1.9,2.4-3.5c0.2-2.7,0-5.4-0.3-8.1
			c-0.4-3.9-1.2-7.7-2.4-11.4c-0.4-1.4-1-2.7-1.6-4c-0.6-1.2-1.5-2.2-2.9-2.3c-0.6-0.1-1.3,0-1.8,0.2c-3.2,1.1-6.5,1.9-9.8,2.7
			c-0.8,0.2-1.6,0.5-2.4,0.9c-1.4,0.5-2.1,1.6-2,3c0.1,1.7,0.1,3.4,0.2,5.2c0.1,4.8,0.2,9.7,0.3,14.5c0,0.4,0,0.8,0,1.1
			c0.1,1.5-0.6,2.6-1.9,3.4c-1.6,1-3.3,1.5-5.1,1.8c-3.7,0.6-7.5,1.1-11.3,1.6c-3.2,0.4-6.3,0.7-9.5,0.9c-2.4,0.2-4.8,0.2-7.1-0.4
			c-1.7-0.5-3.3-1.3-4.3-2.8c-0.8-1.1-0.9-2.3-0.5-3.6c0.7-2.1,2.2-3.5,4.1-4.5c2.5-1.4,5.2-2.2,7.9-3c3.2-0.9,6.3-1.8,9.5-2.7
			c0.7-0.2,1.4-0.6,2.1-0.9c0.9-0.5,1.3-1.3,1.4-2.2c0.2-2.4-0.4-4.8-1.3-7c-0.8-2-1.8-3.9-2.8-5.9c-0.5-1-0.9-2-1.4-3
			c-0.1-0.2-0.2-0.4-0.4-0.5c-1.2-1.2-2.7-2-4.1-2.9c-4.9-3.2-10-6.1-14.7-9.7c-6.7-5.2-11.8-11.6-15.7-19.1
			c-1.9-3.6-3.5-7.3-4.5-11.2c-0.9-3.4-1.4-6.8-1.7-10.3c-0.1-1.4-0.2-2.8-0.3-4.2c0-1.7,0-3.5,0-5.2c0.5-9.7,2.6-19,5.8-28.1
			c2.8-7.9,7.2-14.9,12.6-21.4c4.8-5.8,10.9-9.9,17.7-12.8C40,49.9,44,49,48,48.3c6.7-1.1,13.4-1.1,20.1-0.8c4,0.2,8,0.5,12,0.9
			c3.3,0.4,6.6,0.9,9.8,1.5c2.6,0.4,5.2,0.9,7.8,1.3c3.3,0.6,6.3,1.7,9.3,3.1c0.4,0.2,0.6,0.2,0.9-0.1c5.6-4.7,11.3-9.4,16.8-14.2
			c4.5-4,8.8-8.3,13-12.6c4.8-4.7,9.4-9.6,13.6-14.8c3.2-3.9,6.3-8,9.4-12c0.1-0.1,0.3-0.3,0.5-0.3c1.1,0,2.3,0,3.4,0
			c-0.1,0.2-0.2,0.4-0.4,0.6c-3.7,4.7-7.2,9.5-11,14.1c-3.4,4.1-7.2,8-10.8,11.9c-4.9,5.2-9.9,10.2-15.2,14.9
			c-5.3,4.7-10.8,9.2-16.2,13.8c-0.2,0.2-0.4,0.4-0.7,0.6c3.6,2.1,6.9,4.5,10,7c3,2.4,5.7,5,7.9,8.2c3.1,4.4,5.3,9.2,6.7,14.3
			c0.5,1.9,1.1,3.8,1.7,5.7c0.1-0.1,0.2-0.1,0.3-0.1c2.7-1.7,5.4-3.3,8-5.1c10-6.8,19.3-14.5,28.3-22.6c6.6-5.9,12.9-12.2,18.9-18.6
			c1.6-1.7,3.1-3.3,4.7-5c0,1.4,0,2.7,0,4.1c0,0.2-0.1,0.4-0.2,0.5c-7.9,8.4-16,16.5-24.6,24.1c-7.9,6.9-16.1,13.5-24.7,19.5
			c-3,2.1-6.3,4-9.4,6c-0.4,0.2-0.4,0.4-0.3,0.8c1.5,5.3,2.3,10.7,2.7,16.1c0.3,3.5,0.4,7.1,0.6,10.6c0.1,0,0.3-0.1,0.4-0.2
			c4.6-2.5,9.3-4.9,13.9-7.4c5-2.7,9.9-5.7,14.5-9.1c4-2.9,7.7-6.2,11.4-9.5c4.2-3.8,8.3-7.6,12.2-11.7c1.1-1.2,2.3-2.3,3.6-3.5
			c0,1.5,0,2.8,0,4.2c-0.1,0.1-0.3,0.3-0.4,0.4c-3.3,3.2-6.6,6.6-10,9.7c-4.1,3.7-8.2,7.4-12.5,10.9c-6.6,5.5-14.1,9.7-21.7,13.7
			c-5.7,3.1-11.5,5.9-17.3,9c-3.7,1.9-7.1,4.2-10.1,7.2c-2.6,2.6-4.8,5.4-5.9,8.9c-0.5,1.6-0.9,3.1-0.8,4.8c0.1,1.8,0.6,3.6,1.2,5.2
			c1.3,3.2,3.2,6,5.5,8.4c1.9,2,4.1,3.6,6.9,4.3c3.1,0.8,6.3,1.1,9.5,0.7c4.4-0.6,8.6-1.9,12.7-3.5c6-2.2,11.8-4.9,17.6-7.7
			c5.5-2.7,10.8-5.6,15.9-8.8c3.1-2,6.2-3.9,9.3-5.8c0,1.1,0,2.2,0,3.2c0,0.3-0.2,0.4-0.4,0.5c-3.6,2.2-7.1,4.5-10.7,6.7
			c-5.2,3.2-10.7,5.9-16.2,8.5c-7,3.3-14.1,6.4-21.5,8.6c-3.8,1.1-7.7,1.8-11.8,1.5c-2.8-0.2-5.4-0.8-8-1.9
			c-0.8-0.4-1.5-0.8-2.2-1.3c-1.2,0.9-2.4,1.8-3.7,2.8c-2.3,1.7-4.8,2.8-7.4,3.8c-3.4,1.4-6.8,2.8-10.4,3.5
			c-1.9,0.4-3.9,0.7-5.9,0.4c-0.4-0.1-0.8,0-1.3,0c-0.1,1.2-0.3,2.4-0.4,3.5c-0.3,2.9,0,5.8,0.5,8.6c0.9,4.8,1.8,9.6,2.7,14.4
			c0.3,1.5,0.5,3,0.6,4.4c0.2,2.5-0.6,4.7-1.8,6.8c-2.4,4-5.8,6.9-9.7,9.3c-4.4,2.7-9,4.9-13.8,6.5c-2.2,0.7-4.6,1-6.9,1.2
			C68.3,233,67.4,233,66.6,232.9z M124.1,165.9c-0.4-0.5-0.7-0.8-1-1.1c-2.4-2.6-4.5-5.6-5.9-8.9c-0.9-2-1.4-4.1-1.6-6.3
			c-0.3-4.1,1.1-7.7,3.2-11.1c1.9-3.1,4.5-5.6,7.3-7.9c3.5-2.8,7.4-5,11.4-7c0.4-0.2,0.6-0.4,0.6-0.9c0-4.1-0.2-8.2-0.6-12.3
			c-0.3-3.8-0.8-7.5-1.7-11.2c-0.9-3.7-2-7.4-3.1-11.1c-0.9-3.3-2-6.5-3.5-9.6c-2-4-4.6-7.7-7.9-10.7c-3.7-3.4-7.7-6.3-12-8.9
			c-3.7-2.3-7.7-3.9-12-4.7c-2.9-0.5-5.9-1-8.8-1.5c-2.9-0.5-5.7-1-8.6-1.3c-4.1-0.4-8.2-0.7-12.3-0.9c-4.8-0.2-9.5-0.3-14.3,0.1
			c-3.2,0.3-6.4,0.8-9.6,1.5c-3.7,0.8-7.1,2.3-10.4,4c-3.9,2-7.4,4.6-10.5,7.7c-2.6,2.6-4.7,5.6-6.8,8.6c-3.5,5-6.1,10.3-8,16.1
			c-1.6,4.7-2.8,9.5-3.7,14.3c-0.8,4.4-1.4,8.8-1.3,13.3c0.1,2.9,0.2,5.8,0.5,8.7c0.3,3,0.8,6.1,1.7,9c2.3,7.3,6,13.9,10.8,19.9
			c3.4,4.2,7.6,7.6,12,10.6c3.8,2.6,7.7,5,11.5,7.4c1.9,1.2,3.7,2.7,4.8,4.7c0.4,0.7,0.7,1.4,1,2c0.9,2,1.9,3.9,2.8,5.9
			c1.1,2.5,1.7,5.1,1.7,7.8c0,2.7-1.2,4.8-3.7,5.9c-0.9,0.4-1.8,0.8-2.7,1c-2.7,0.8-5.5,1.5-8.2,2.3c-2.4,0.7-4.8,1.4-7.1,2.5
			c-1.1,0.5-2.1,1.1-2.9,2.1c-1,1.4-0.8,2.2,0.6,3.1c1,0.6,2.2,0.9,3.4,0.9c2.1,0,4.2,0,6.3-0.1c2.9-0.2,5.8-0.6,8.8-0.9
			c2.9-0.3,5.7-0.7,8.5-1.1c1.5-0.2,3.1-0.4,4.5-1.1c0.7-0.3,1.1-0.6,1-1.6c-0.2-4.8-0.2-9.6-0.3-14.4c0-2.2-0.2-4.4-0.2-6.6
			c0-2.4,1.2-4.1,3.4-5.1c1.2-0.6,2.5-1,3.8-1.4c3-0.8,6-1.5,8.9-2.5c1.1-0.4,2.2-0.5,3.3-0.3c2.3,0.4,3.9,1.7,5,3.6
			c1,1.8,1.7,3.6,2.3,5.6c1.2,3.9,2,7.9,2.4,12c0.3,2.7,0.4,5.5,0.1,8.2c-0.3,2.6-1.5,4.6-4,5.6c-1.6,0.7-3.3,1.3-4.9,1.9
			c-4.8,1.8-8.9,4.5-12.4,8.3c-1.4,1.5-2.7,3.1-3.1,5.2c-0.5,2.2,0,4,2.6,4.4c3.1,0.5,6.2,0.1,9.2-0.8c5.3-1.6,10.3-4.1,14.9-7.1
			c2.8-1.8,5.2-4.1,7-6.9c1.3-2,2-4.1,1.6-6.5c-0.5-2.8-1-5.5-1.5-8.3c-0.8-4.4-1.8-8.7-2.3-13.1c-0.3-3.2-0.2-6.3,0.5-9.5
			c0.7-3.1,2.2-5.8,3.5-8.6c0-0.1,0.1-0.1,0.1-0.2c0.5-0.7,1.2-0.8,1.8-0.5c0.6,0.3,0.8,1.1,0.5,1.8c-0.5,1.1-1,2.2-1.4,3.4
			c-0.2,0.5-0.4,1.1-0.6,1.6c2.2,0.5,4.3,0.1,6.4-0.4c4.8-1.2,9.4-3.1,13.7-5.3C120.8,168.3,122.4,167,124.1,165.9z"/>
		<path class="st1" d="M197.3,40.1c-1.6,1.7-3.1,3.3-4.7,5c-6.1,6.4-12.4,12.7-18.9,18.6c-9,8.1-18.3,15.7-28.3,22.6
			c-2.6,1.8-5.4,3.4-8,5.1c-0.1,0.1-0.2,0.1-0.3,0.1c-0.6-1.9-1.2-3.8-1.7-5.7c-1.5-5.1-3.7-10-6.7-14.3c-2.2-3.2-5-5.8-7.9-8.2
			c-3.2-2.6-6.4-4.9-10-7c0.3-0.2,0.5-0.4,0.7-0.6c5.4-4.6,10.9-9.1,16.2-13.8c5.3-4.7,10.4-9.7,15.2-14.9
			c3.7-3.9,7.4-7.8,10.8-11.9c3.8-4.6,7.4-9.4,11-14.1c0.1-0.2,0.2-0.4,0.4-0.6c0.1,0,0.3,0,0.4,0c10.4,0,20.9,0,31.3,0
			c0.2,0,0.3,0,0.5,0c0,0.2,0,0.3,0,0.5c0,13,0,26.1,0,39.1C197.3,39.9,197.3,40,197.3,40.1z"/>
		<path class="st1" d="M197.3,141.8c-3.1,1.9-6.2,3.9-9.3,5.8c-5.1,3.2-10.5,6.2-15.9,8.8c-5.8,2.8-11.6,5.5-17.6,7.7
			c-4.1,1.5-8.3,2.9-12.7,3.5c-3.2,0.4-6.4,0.1-9.5-0.7c-2.8-0.7-4.9-2.3-6.9-4.3c-2.4-2.4-4.3-5.2-5.5-8.4
			c-0.7-1.7-1.1-3.4-1.2-5.2c-0.1-1.6,0.3-3.2,0.8-4.8c1.1-3.6,3.3-6.4,5.9-8.9c3-2.9,6.4-5.2,10.1-7.2c5.7-3,11.5-5.9,17.3-9
			c7.6-4,15-8.3,21.7-13.7c4.3-3.5,8.4-7.1,12.5-10.9c3.4-3.1,6.7-6.5,10-9.7c0.1-0.1,0.3-0.3,0.4-0.4c0,0.2,0,0.4,0,0.5
			c0,18.7,0,37.5,0,56.2C197.3,141.5,197.3,141.6,197.3,141.8z"/>
		<path class="st2" d="M15,58.7c0-1.1,0.9-2.1,2-2c1,0,1.9,0.9,1.9,2c0,1.1-0.9,2-2,2C15.9,60.7,15,59.8,15,58.7z"/>
		<path class="st3" d="M124.1,165.9c-1.7,1.1-3.3,2.5-5.1,3.4c-4.4,2.3-8.9,4.2-13.7,5.3c-2.1,0.5-4.2,0.8-6.4,0.4
			c0.2-0.5,0.4-1.1,0.6-1.6c0.5-1.1,1-2.2,1.4-3.4c0.3-0.7,0.1-1.5-0.5-1.8c-0.6-0.4-1.4-0.2-1.8,0.5c0,0.1-0.1,0.1-0.1,0.2
			c-1.3,2.8-2.8,5.5-3.5,8.6c-0.7,3.1-0.8,6.3-0.5,9.5c0.4,4.4,1.5,8.7,2.3,13.1c0.5,2.8,1,5.5,1.5,8.3c0.4,2.4-0.3,4.5-1.6,6.5
			c-1.9,2.8-4.2,5.1-7,6.9c-4.6,3.1-9.6,5.5-14.9,7.1c-3,0.9-6,1.3-9.2,0.8c-2.6-0.4-3.1-2.2-2.6-4.4c0.5-2,1.7-3.7,3.1-5.2
			c3.4-3.8,7.6-6.5,12.4-8.3c1.6-0.6,3.3-1.2,4.9-1.9c2.5-1,3.7-3,4-5.6c0.3-2.7,0.1-5.5-0.1-8.2c-0.4-4.1-1.2-8.1-2.4-12
			c-0.6-1.9-1.3-3.8-2.3-5.6c-1.1-2-2.8-3.2-5-3.6c-1.1-0.2-2.2,0-3.3,0.3c-2.9,1-5.9,1.7-8.9,2.5c-1.3,0.3-2.6,0.8-3.8,1.4
			c-2.2,1-3.4,2.7-3.4,5.1c0,2.2,0.1,4.4,0.2,6.6c0.1,4.8,0.1,9.6,0.3,14.4c0,0.9-0.3,1.2-1,1.6c-1.4,0.6-3,0.8-4.5,1.1
			c-2.8,0.4-5.7,0.8-8.5,1.1c-2.9,0.3-5.8,0.7-8.8,0.9c-2.1,0.2-4.2,0.1-6.3,0.1c-1.2,0-2.3-0.3-3.4-0.9c-1.5-0.9-1.6-1.7-0.6-3.1
			c0.7-1,1.8-1.6,2.9-2.1c2.3-1.1,4.7-1.8,7.1-2.5c2.7-0.8,5.5-1.5,8.2-2.3c0.9-0.3,1.8-0.6,2.7-1c2.5-1.2,3.7-3.2,3.7-5.9
			c0-2.7-0.6-5.3-1.7-7.8c-0.9-2-1.9-4-2.8-5.9c-0.3-0.7-0.6-1.4-1-2c-1.2-2-2.9-3.5-4.8-4.7c-3.8-2.5-7.7-4.9-11.5-7.4
			c-4.5-3-8.6-6.4-12-10.6c-4.8-6-8.5-12.5-10.8-19.9c-0.9-2.9-1.5-5.9-1.7-9c-0.2-2.9-0.4-5.8-0.5-8.7c-0.1-4.5,0.5-8.9,1.3-13.3
			C5.3,98,6.4,93.2,8,88.6c1.9-5.7,4.6-11.1,8-16.1c2.1-3,4.3-6,6.8-8.6c3.1-3.1,6.6-5.7,10.5-7.7c3.3-1.7,6.7-3.2,10.4-4
			c3.2-0.7,6.4-1.2,9.6-1.5c4.7-0.4,9.5-0.4,14.3-0.1c4.1,0.2,8.2,0.5,12.3,0.9c2.9,0.3,5.7,0.8,8.6,1.3c3,0.5,5.9,1,8.8,1.5
			c4.3,0.8,8.2,2.4,12,4.7c4.3,2.6,8.3,5.5,12,8.9c3.4,3,5.9,6.7,7.9,10.7c1.6,3.1,2.6,6.3,3.5,9.6c1.1,3.7,2.1,7.4,3.1,11.1
			c0.9,3.7,1.4,7.4,1.7,11.2c0.4,4.1,0.6,8.2,0.6,12.3c0,0.5-0.2,0.7-0.6,0.9c-4,2-7.9,4.2-11.4,7c-2.8,2.3-5.4,4.8-7.3,7.9
			c-2.1,3.4-3.5,7-3.2,11.1c0.1,2.2,0.7,4.3,1.6,6.3c1.4,3.3,3.5,6.2,5.9,8.9C123.4,165.1,123.7,165.4,124.1,165.9z M116.7,114.2
			c-0.1-1.5-0.3-4.3-0.6-7c0-0.4-0.1-0.8-0.2-1.2c-0.2-0.8-0.9-1.4-1.7-1.3c-0.8,0.1-1.3,0.8-1.3,1.7c0,0.6,0.1,1.2,0.1,1.9
			c0.1,1.6,0.3,3.1,0.4,4.7c0.1,3.1,0,6.2-0.3,9.3c-0.3,2.5-1,4.8-2.6,6.8c-1.7,2.1-3.6,4-6.2,5c-3.5,1.4-7.1,2-10.8,1.6
			c-2.4-0.3-4.7-1-6.8-2.1c-2.9-1.5-4.5-4-5.4-7c-1.3-4.5-1.9-9-2.5-13.6c-0.2-1.3-0.4-2.6-0.7-3.9c-0.1-0.7-0.7-1.1-1.3-1.1
			c-0.6,0-1.1,0.4-1.3,1.1c-0.1,0.3-0.1,0.6-0.1,0.8c0.3,2.5,0.6,5,0.9,7.5c0.4,3.6,1.1,7.1,2.2,10.5c1.4,4.2,4,7.3,8.2,9.1
			c4.5,1.9,9.1,2.4,13.9,1.5c4.5-0.9,8.5-2.7,11.5-6.4c1.8-2.2,3.3-4.5,3.8-7.3C116.5,121.6,116.6,118.5,116.7,114.2z M60.4,65.9
			c0-1.1-0.8-1.9-1.8-1.9c-1.1,0-2,1-2,2c0,1,0.9,1.9,1.9,1.9C59.5,67.9,60.4,67,60.4,65.9z M20.5,100.6c0-1-0.9-1.9-1.8-1.9
			c-1,0-1.9,0.9-1.9,1.9c0,1,0.8,1.9,1.8,1.9C19.7,102.5,20.5,101.7,20.5,100.6z"/>
		<path class="st0" d="M116.7,114.2c-0.1,4.3-0.2,7.4-0.8,10.4c-0.5,2.8-2,5.2-3.8,7.3c-3,3.6-7,5.5-11.5,6.4
			c-4.8,0.9-9.4,0.4-13.9-1.5c-4.2-1.8-6.8-4.9-8.2-9.1c-1.1-3.4-1.7-7-2.2-10.5c-0.3-2.5-0.6-5-0.9-7.5c0-0.3,0-0.6,0.1-0.8
			c0.1-0.6,0.7-1.1,1.3-1.1c0.6,0,1.2,0.4,1.3,1.1c0.2,1.3,0.5,2.6,0.7,3.9c0.6,4.6,1.2,9.2,2.5,13.6c0.9,3,2.5,5.5,5.4,7
			c2.1,1.1,4.4,1.8,6.8,2.1c3.7,0.4,7.4-0.1,10.8-1.6c2.6-1.1,4.5-2.9,6.2-5c1.6-2,2.3-4.3,2.6-6.8c0.4-3.1,0.4-6.2,0.3-9.3
			c0-1.6-0.3-3.1-0.4-4.7c-0.1-0.6-0.1-1.2-0.1-1.9c0-0.9,0.5-1.6,1.3-1.7c0.7-0.1,1.4,0.4,1.7,1.3c0.1,0.4,0.1,0.8,0.2,1.2
			C116.4,109.9,116.6,112.7,116.7,114.2z"/>
		<path class="st4" d="M60.4,65.9c0,1.1-0.8,2-1.9,2c-1.1,0-1.9-0.8-1.9-1.9c0-1.1,1-2,2-2C59.5,64,60.4,64.8,60.4,65.9z"/>
		<path class="st5" d="M20.5,100.6c0,1.1-0.8,1.9-1.9,1.9c-1,0-1.8-0.9-1.8-1.9c0-1,0.9-1.9,1.9-1.9C19.7,98.7,20.6,99.6,20.5,100.6
			z"/>
	</g>
</g>
</svg>
